<svg width="560" height="721" viewBox="0 0 560 721" fill="none" xmlns="http://www.w3.org/2000/svg">
<path d="M482.609 580.134C482.609 592.16 472.919 601.897 460.893 601.897H383.786C383.624 601.895 383.47 601.872 383.308 601.872C383.148 601.872 382.992 601.895 382.832 601.897H177.265C177.105 601.895 176.949 601.872 176.787 601.872C176.627 601.872 176.471 601.895 176.309 601.897H99.1585C87.1816 601.897 77.4449 592.16 77.4449 580.134V123.511C77.4449 111.485 87.1816 101.748 99.1585 101.748H460.893C472.919 101.748 482.609 111.485 482.609 123.511V580.134ZM460.893 55.3013H376.96C368.978 35.7788 349.794 22.0006 327.446 22.0006H232.608C210.26 22.0006 191.078 35.7788 183.143 55.3013H99.1585C61.5742 55.3013 31 85.8755 31 123.511V580.134C31 617.768 61.5742 648.344 99.1585 648.344H128.036C127.997 649.144 127.915 649.934 127.915 650.744C127.915 677.736 149.797 699.618 176.787 699.618C203.779 699.618 225.661 677.736 225.661 650.744C225.661 649.934 225.579 649.144 225.54 648.344H334.557C334.52 649.144 334.436 649.934 334.436 650.744C334.436 677.736 356.318 699.618 383.308 699.618C410.302 699.618 432.182 677.736 432.182 650.744C432.182 649.934 432.1 649.144 432.059 648.344H460.893C498.48 648.344 529.103 617.768 529.103 580.134V123.511C529.103 85.8755 498.48 55.3013 460.893 55.3013Z" fill="#34373A"/>
<path d="M279.401 233.717C241.623 233.717 211 264.342 211 302.119C211 329.419 227.035 352.916 250.164 363.887V440.691C250.164 456.839 263.255 469.928 279.401 469.928C295.548 469.928 308.637 456.839 308.637 440.691V363.887C331.768 352.916 347.803 329.419 347.803 302.119C347.803 264.342 317.178 233.717 279.401 233.717Z" fill="#34373A"/>
</svg>
