<svg width="16" height="16" viewBox="0 0 16 16" fill="none" xmlns="http://www.w3.org/2000/svg">
<path d="M12.1971 12.1068C12.1971 12.8114 11.6233 13.3845 10.9187 13.3845H10.3788C10.3794 13.3991 10.3807 13.4145 10.3807 13.4291C10.3807 13.9352 9.97101 14.345 9.46553 14.345C8.95944 14.345 8.54972 13.9352 8.54972 13.4291C8.54972 13.4145 8.55162 13.3991 8.55227 13.3845H6.50938C6.51063 13.3991 6.51193 13.4145 6.51193 13.4291C6.51193 13.9352 6.10221 14.345 5.59612 14.345C5.09063 14.345 4.68091 13.9352 4.68091 13.4291C4.68091 13.4145 4.68221 13.3991 4.68286 13.3845H4.14228C3.43771 13.3845 2.86524 12.8114 2.86524 12.1068V3.55167C2.86524 2.84645 3.43771 2.27398 4.14228 2.27398H5.71543C5.86418 1.9083 6.22347 1.64983 6.64213 1.64983H8.41891C8.83753 1.64983 9.19686 1.9083 9.34621 2.27398H10.9187C11.6233 2.27398 12.1971 2.84645 12.1971 3.55167V12.1068ZM10.9187 1.95488H9.54085C9.30278 1.57005 8.88222 1.33073 8.41891 1.33073H6.64213C6.17814 1.33073 5.75822 1.57005 5.52079 1.95488H4.14228C3.26221 1.95488 2.54614 2.67095 2.54614 3.55167V12.1068C2.54614 12.9869 3.26221 13.7036 4.14228 13.7036H4.39245C4.51756 14.253 5.0096 14.6641 5.59612 14.6641C6.18328 14.6641 6.67532 14.253 6.80039 13.7036H8.26126C8.38633 14.253 8.87902 14.6641 9.46553 14.6641C10.052 14.6641 10.5447 14.253 10.6692 13.7036H10.9187C11.7994 13.7036 12.5162 12.9869 12.5162 12.1068V3.55167C12.5162 2.67095 11.7994 1.95488 10.9187 1.95488Z" fill="#E8E8E8"/>
<path d="M8.07872 8.05715V9.49568C8.07872 9.79819 7.83365 10.0433 7.53114 10.0433C7.22864 10.0433 6.98292 9.79819 6.98292 9.49568V8.05715C6.54956 7.85102 6.24965 7.4113 6.24965 6.89947C6.24965 6.19169 6.82337 5.61793 7.53114 5.61793C8.23891 5.61793 8.81268 6.19169 8.81268 6.89947C8.81268 7.4113 8.51207 7.85102 8.07872 8.05715ZM10.9187 3.14557H4.14228C3.91765 3.14557 3.73511 3.32806 3.73511 3.55334V12.1085C3.73511 12.3338 3.91765 12.5156 4.14228 12.5156H10.9187C11.144 12.5156 11.3259 12.3338 11.3259 12.1085V3.55334C11.3259 3.32806 11.144 3.14557 10.9187 3.14557Z" fill="#E8E8E8"/>
</svg>
