<svg width="32" height="32" viewBox="0 0 32 32" fill="none" xmlns="http://www.w3.org/2000/svg">
<path d="M23.8207 24.6299C23.8207 25.1032 23.4316 25.4863 22.9487 25.4863H19.8527C19.8462 25.4863 19.84 25.4854 19.8335 25.4854C19.8271 25.4854 19.8208 25.4863 19.8144 25.4863H11.5604C11.554 25.4863 11.5477 25.4854 11.5412 25.4854C11.5348 25.4854 11.5285 25.4863 11.522 25.4863H8.42422C7.94332 25.4863 7.55237 25.1032 7.55237 24.6299V6.66017C7.55237 6.18689 7.94332 5.80372 8.42422 5.80372H22.9487C23.4316 5.80372 23.8207 6.18689 23.8207 6.66017V24.6299ZM22.9487 3.97587H19.5786C19.2581 3.20759 18.4878 2.66537 17.5905 2.66537H13.7825C12.8852 2.66537 12.115 3.20759 11.7964 3.97587H8.42422C6.91512 3.97587 5.6875 5.17907 5.6875 6.66017V24.6299C5.6875 26.1109 6.91512 27.3142 8.42422 27.3142H9.58372C9.58216 27.3457 9.57886 27.3768 9.57886 27.4087C9.57886 28.4709 10.4575 29.332 11.5412 29.332C12.625 29.332 13.5036 28.4709 13.5036 27.4087C13.5036 27.3768 13.5003 27.3457 13.4987 27.3142H17.876C17.8745 27.3457 17.8712 27.3768 17.8712 27.4087C17.8712 28.4709 18.7498 29.332 19.8335 29.332C20.9174 29.332 21.7959 28.4709 21.7959 27.4087C21.7959 27.3768 21.7926 27.3457 21.7909 27.3142H22.9487C24.4579 27.3142 25.6875 26.1109 25.6875 24.6299V6.66017C25.6875 5.17907 24.4579 3.97587 22.9487 3.97587Z" fill="#35383B"/>
<path d="M15.6614 10.9972C14.1445 10.9972 12.9149 12.2024 12.9149 13.6891C12.9149 14.7635 13.5588 15.6881 14.4874 16.1199V19.1424C14.4874 19.7779 15.0131 20.293 15.6614 20.293C16.3097 20.293 16.8353 19.7779 16.8353 19.1424V16.1199C17.764 15.6881 18.4079 14.7635 18.4079 13.6891C18.4079 12.2024 17.1782 10.9972 15.6614 10.9972Z" fill="#35383B"/>
</svg>
