<svg width="2134" height="1500" viewBox="0 0 2134 1500" fill="none" xmlns="http://www.w3.org/2000/svg">
<path d="M471.951 1347V1214.25H492.201V1347H471.951ZM498.951 1347V1214.25H519.201V1347H498.951ZM525.951 1347V1214.25H532.701V1347H525.951ZM552.951 1347V1214.25H559.701V1347H552.951ZM566.451 1347V1214.25H573.201V1347H566.451ZM528.876 1419.68C524.976 1419.68 521.526 1418.7 518.526 1416.75C515.376 1414.8 512.901 1411.88 511.101 1407.98C509.301 1403.93 508.401 1398.9 508.401 1392.9C508.401 1386.6 509.376 1381.43 511.326 1377.38C513.276 1373.48 515.751 1370.63 518.751 1368.83C521.751 1367.18 524.976 1366.35 528.426 1366.35C532.176 1366.35 535.401 1367.25 538.101 1369.05C540.801 1370.85 542.826 1373.33 544.176 1376.48L539.226 1378.95L538.551 1379.18L538.326 1378.73V1378.05C538.326 1377.45 537.951 1376.63 537.201 1375.58C536.001 1373.93 534.651 1372.73 533.151 1371.98C531.651 1371.23 530.076 1370.85 528.426 1370.85C523.926 1370.85 520.401 1372.8 517.851 1376.7C515.451 1380.45 514.251 1385.78 514.251 1392.68C514.251 1396.88 514.851 1400.7 516.051 1404.15C517.401 1407.45 519.126 1410 521.226 1411.8C523.476 1413.6 525.951 1414.5 528.651 1414.5C530.751 1414.5 532.701 1413.98 534.501 1412.93C536.451 1411.73 538.026 1410.15 539.226 1408.2L543.501 1411.13C541.701 1413.98 539.676 1416.08 537.426 1417.43C535.026 1418.93 532.176 1419.68 528.876 1419.68ZM580.057 1347V1214.25H600.307V1347H580.057ZM607.057 1347V1214.25H613.807V1347H607.057ZM620.557 1347V1214.25H640.807V1347H620.557ZM647.557 1347V1214.25H654.307V1347H647.557ZM674.557 1347V1214.25H681.307V1347H674.557ZM634.057 1419.68C628.057 1419.68 623.482 1417.35 620.332 1412.7C617.032 1408.05 615.382 1401.45 615.382 1392.9C615.382 1384.65 617.032 1378.13 620.332 1373.33C623.632 1368.68 628.207 1366.35 634.057 1366.35C639.907 1366.35 644.482 1368.68 647.782 1373.33C651.082 1378.13 652.732 1384.65 652.732 1392.9C652.732 1401.45 651.082 1408.05 647.782 1412.7C644.632 1417.35 640.057 1419.68 634.057 1419.68ZM634.057 1414.5C638.107 1414.5 641.182 1412.7 643.282 1409.1C645.532 1405.35 646.657 1399.95 646.657 1392.9C646.657 1386.3 645.532 1381.05 643.282 1377.15C641.032 1373.4 637.957 1371.53 634.057 1371.53C630.157 1371.53 627.082 1373.4 624.832 1377.15C622.582 1381.05 621.457 1386.3 621.457 1392.9C621.457 1399.95 622.507 1405.35 624.607 1409.1C626.857 1412.7 630.007 1414.5 634.057 1414.5ZM688.162 1347V1214.25H708.412V1347H688.162ZM715.162 1347V1214.25H735.412V1347H715.162ZM742.162 1347V1214.25H748.912V1347H742.162ZM755.662 1347V1214.25H762.412V1347H755.662ZM782.662 1347V1214.25H789.412V1347H782.662ZM724.612 1366.58H729.337L742.162 1392.23L755.212 1366.58H759.712V1418.78H754.087V1379.4L742.837 1400.55H740.587L730.012 1379.63V1418.78H724.612V1366.58ZM796.268 1347V1214.25H803.018V1347H796.268ZM809.768 1347V1214.25H830.018V1347H809.768ZM836.768 1347V1214.25H843.518V1347H836.768ZM863.768 1347V1214.25H884.018V1347H863.768ZM890.768 1347V1214.25H897.518V1347H890.768ZM836.093 1413.83H846.443V1371.53H836.768V1366.58H862.643V1371.53H852.293V1413.83H863.093V1418.78H836.093V1413.83ZM904.373 1347V1214.25H911.123V1347H904.373ZM917.873 1347V1214.25H924.623V1347H917.873ZM931.373 1347V1214.25H951.623V1347H931.373ZM958.373 1347V1214.25H965.123V1347H958.373ZM985.373 1347V1214.25H1005.62V1347H985.373ZM941.723 1366.58H947.348L969.173 1405.28V1366.58H975.698V1367.25C975.248 1367.55 975.023 1367.93 975.023 1368.38C974.873 1368.68 974.798 1369.35 974.798 1370.4V1418.78H970.298L947.123 1377.83V1418.78H941.723V1366.58ZM1012.48 1347V1214.25H1019.23V1347H1012.48ZM1025.98 1347V1214.25H1032.73V1347H1025.98ZM1039.48 1347V1214.25H1046.23V1347H1039.48ZM1066.48 1347V1214.25H1086.73V1347H1066.48ZM1093.48 1347V1214.25H1113.73V1347H1093.48ZM1068.73 1419.68C1064.53 1419.68 1060.93 1418.55 1057.93 1416.3C1054.93 1414.2 1052.6 1411.13 1050.95 1407.08C1049.3 1403.18 1048.48 1398.6 1048.48 1393.35C1048.48 1386.45 1049.53 1380.98 1051.63 1376.93C1053.73 1372.88 1056.28 1370.03 1059.28 1368.38C1062.28 1366.88 1065.28 1366.13 1068.28 1366.13C1071.43 1366.13 1074.43 1366.95 1077.28 1368.6C1080.28 1370.1 1082.45 1372.2 1083.8 1374.9L1079.75 1378.05L1079.08 1378.73L1078.85 1378.28C1078.85 1377.83 1078.78 1377.38 1078.63 1376.93C1078.33 1376.63 1077.88 1376.1 1077.28 1375.35C1075.93 1373.85 1074.58 1372.8 1073.23 1372.2C1071.88 1371.6 1070.23 1371.3 1068.28 1371.3C1064.23 1371.3 1060.85 1372.88 1058.15 1376.03C1055.6 1379.33 1054.33 1384.65 1054.33 1392C1054.33 1399.2 1055.6 1404.75 1058.15 1408.65C1060.7 1412.55 1064.23 1414.5 1068.73 1414.5C1070.38 1414.5 1072.1 1414.2 1073.9 1413.6C1075.85 1413.15 1077.43 1412.4 1078.63 1411.35V1398.98H1069.18V1393.8H1084.03V1414.28C1079.08 1417.88 1073.98 1419.68 1068.73 1419.68ZM1120.58 1347V1214.25H1127.33V1347H1120.58ZM1147.58 1347V1214.25H1167.83V1347H1147.58ZM1174.58 1347V1214.25H1181.33V1347H1174.58ZM1188.08 1347V1214.25H1208.33V1347H1188.08ZM1215.08 1347V1214.25H1221.83V1347H1215.08ZM1228.69 1347V1214.25H1235.44V1347H1228.69ZM1242.19 1347V1214.25H1262.44V1347H1242.19ZM1269.19 1347V1214.25H1275.94V1347H1269.19ZM1282.69 1347V1214.25H1302.94V1347H1282.69ZM1323.19 1347V1214.25H1329.94V1347H1323.19ZM1282.46 1419.68C1275.71 1419.68 1270.24 1417.43 1266.04 1412.93L1269.19 1407.75L1269.41 1407.08L1270.09 1407.3C1270.09 1407.45 1270.16 1407.75 1270.31 1408.2C1270.31 1408.5 1270.46 1408.88 1270.76 1409.33C1270.91 1409.63 1271.21 1409.93 1271.66 1410.23C1274.81 1412.93 1278.71 1414.28 1283.36 1414.28C1286.36 1414.28 1288.91 1413.45 1291.01 1411.8C1293.11 1410 1294.16 1407.9 1294.16 1405.5C1294.16 1403.85 1293.79 1402.43 1293.04 1401.23C1292.44 1400.18 1291.31 1399.13 1289.66 1398.08C1288.01 1397.03 1285.46 1395.75 1282.01 1394.25C1276.91 1392.3 1273.24 1390.05 1270.99 1387.5C1268.89 1384.95 1267.84 1382.1 1267.84 1378.95C1267.84 1375.05 1269.26 1371.9 1272.11 1369.5C1274.96 1367.1 1278.79 1365.9 1283.59 1365.9C1286.44 1365.9 1289.14 1366.5 1291.69 1367.7C1294.09 1368.9 1296.26 1370.48 1298.21 1372.43L1294.39 1377.6L1293.94 1377.15C1293.94 1377 1293.86 1376.78 1293.71 1376.48C1293.71 1376.03 1293.56 1375.65 1293.26 1375.35C1293.11 1374.9 1292.81 1374.53 1292.36 1374.23C1291.16 1373.03 1289.74 1372.13 1288.09 1371.53C1286.59 1371.08 1284.79 1370.85 1282.69 1370.85C1279.99 1370.85 1277.89 1371.6 1276.39 1373.1C1274.74 1374.6 1273.91 1376.4 1273.91 1378.5C1273.91 1380.15 1274.21 1381.58 1274.81 1382.78C1275.56 1383.98 1276.84 1385.1 1278.64 1386.15C1280.44 1387.35 1283.14 1388.63 1286.74 1389.98C1291.69 1392.08 1295.14 1394.18 1297.09 1396.28C1298.89 1398.53 1299.79 1401.3 1299.79 1404.6C1299.79 1407.15 1299.19 1409.55 1297.99 1411.8C1296.64 1414.05 1294.69 1415.93 1292.14 1417.43C1289.44 1418.93 1286.21 1419.68 1282.46 1419.68ZM1336.79 1347V1214.25H1357.04V1347H1336.79ZM1363.79 1347V1214.25H1370.54V1347H1363.79ZM1377.29 1347V1214.25H1397.54V1347H1377.29ZM1404.29 1347V1214.25H1411.04V1347H1404.29ZM1431.29 1347V1214.25H1438.04V1347H1431.29ZM1390.79 1419.68C1384.79 1419.68 1380.22 1417.35 1377.07 1412.7C1373.77 1408.05 1372.12 1401.45 1372.12 1392.9C1372.12 1384.65 1373.77 1378.13 1377.07 1373.33C1380.37 1368.68 1384.94 1366.35 1390.79 1366.35C1396.64 1366.35 1401.22 1368.68 1404.52 1373.33C1407.82 1378.13 1409.47 1384.65 1409.47 1392.9C1409.47 1401.45 1407.82 1408.05 1404.52 1412.7C1401.37 1417.35 1396.79 1419.68 1390.79 1419.68ZM1390.79 1414.5C1394.84 1414.5 1397.92 1412.7 1400.02 1409.1C1402.27 1405.35 1403.39 1399.95 1403.39 1392.9C1403.39 1386.3 1402.27 1381.05 1400.02 1377.15C1397.77 1373.4 1394.69 1371.53 1390.79 1371.53C1386.89 1371.53 1383.82 1373.4 1381.57 1377.15C1379.32 1381.05 1378.19 1386.3 1378.19 1392.9C1378.19 1399.95 1379.24 1405.35 1381.34 1409.1C1383.59 1412.7 1386.74 1414.5 1390.79 1414.5ZM1444.9 1347V1214.25H1465.15V1347H1444.9ZM1471.9 1347V1214.25H1478.65V1347H1471.9ZM1485.4 1347V1214.25H1505.65V1347H1485.4ZM1512.4 1347V1214.25H1519.15V1347H1512.4ZM1539.4 1347V1214.25H1546.15V1347H1539.4ZM1498.9 1419.68C1492.9 1419.68 1488.33 1417.35 1485.18 1412.7C1481.88 1408.05 1480.23 1401.45 1480.23 1392.9C1480.23 1384.65 1481.88 1378.13 1485.18 1373.33C1488.48 1368.68 1493.05 1366.35 1498.9 1366.35C1504.75 1366.35 1509.33 1368.68 1512.63 1373.33C1515.93 1378.13 1517.58 1384.65 1517.58 1392.9C1517.58 1401.45 1515.93 1408.05 1512.63 1412.7C1509.48 1417.35 1504.9 1419.68 1498.9 1419.68ZM1498.9 1414.5C1502.95 1414.5 1506.03 1412.7 1508.13 1409.1C1510.38 1405.35 1511.5 1399.95 1511.5 1392.9C1511.5 1386.3 1510.38 1381.05 1508.13 1377.15C1505.88 1373.4 1502.8 1371.53 1498.9 1371.53C1495 1371.53 1491.93 1373.4 1489.68 1377.15C1487.43 1381.05 1486.3 1386.3 1486.3 1392.9C1486.3 1399.95 1487.35 1405.35 1489.45 1409.1C1491.7 1412.7 1494.85 1414.5 1498.9 1414.5ZM1553.01 1347V1214.25H1559.76V1347H1553.01ZM1566.51 1347V1214.25H1573.26V1347H1566.51ZM1580.01 1347V1214.25H1600.26V1347H1580.01ZM1607.01 1347V1214.25H1613.76V1347H1607.01ZM1634.01 1347V1214.25H1654.26V1347H1634.01ZM1590.36 1366.58H1595.98L1617.81 1405.28V1366.58H1624.33V1367.25C1623.88 1367.55 1623.66 1367.93 1623.66 1368.38C1623.51 1368.68 1623.43 1369.35 1623.43 1370.4V1418.78H1618.93L1595.76 1377.83V1418.78H1590.36V1366.58Z" fill="#34373A"/>
<mask id="mask0_3138_9434" style="mask-type:luminance" maskUnits="userSpaceOnUse" x="71" y="237" width="1991" height="1026">
<path d="M71.5312 237.002H2061.53V1262.78H71.5312V237.002Z" fill="white"/>
</mask>
<g mask="url(#mask0_3138_9434)">
<path d="M1864.57 950.377C1859.21 955.758 1850.92 958.472 1839.77 958.472H1819.19C1814.36 958.472 1810.41 954.228 1810.41 949.021V907.582C1810.41 902.375 1814.36 898.13 1819.19 898.13H1839.77C1850.92 898.13 1859.21 900.842 1864.57 906.225C1869.88 911.65 1872.55 919.003 1872.55 928.323C1872.55 937.643 1869.88 944.996 1864.57 950.377ZM1729.83 933.618V1023.24H1629.11C1624.28 1023.24 1620.33 1018.99 1620.33 1013.78V998.818C1620.33 993.611 1624.28 989.366 1629.11 989.366H1712.67C1717.5 989.366 1721.45 985.165 1721.45 979.913V936.287C1721.45 931.08 1717.5 926.835 1712.67 926.835H1629.11C1624.28 926.835 1620.33 922.591 1620.33 917.382V906.137C1620.33 900.93 1624.28 896.686 1629.11 896.686H1713.83C1714.58 895.373 1727.99 852.139 1729.83 840.631V896.029C1729.87 896.029 1729.92 896.029 1730.01 895.986L1729.83 933.618ZM1541.11 1031.94V1032.47L1533.74 1021.88L1484.23 950.945C1481.69 947.314 1481.91 942.238 1484.76 938.913L1541.11 872.049V1006.04L1563.98 1063.23L1541.11 1031.94ZM1353.54 878.437C1349.98 883.601 1338.04 904.141 1329.97 914.032V1010.63L1313.33 994.661C1309.78 991.205 1304.34 991.553 1301.05 995.318C1295.52 1001.57 1289.64 1006.65 1283.32 1010.54C1274.76 1015.8 1265.15 1018.42 1254.44 1018.42C1246.05 1018.42 1238.42 1016.98 1231.57 1014.05C1224.72 1011.07 1218.89 1006.78 1213.97 1001.14C1209.1 995.492 1205.28 988.71 1202.56 980.746C1199.8 972.782 1198.44 963.855 1198.44 954.053C1198.44 944.251 1199.8 935.368 1202.56 927.404C1205.28 919.439 1209.1 912.614 1213.97 906.968C1218.89 901.324 1224.72 897.037 1231.57 894.103C1238.42 891.171 1246.05 889.684 1254.44 889.684C1265.15 889.684 1274.76 892.31 1283.32 897.605C1289.64 901.499 1295.52 906.574 1301.05 912.788C1304.34 916.551 1309.78 916.902 1313.33 913.488L1324.31 902.943V902.9L1329.97 897.474L1351.3 876.993C1351.3 876.993 1351.47 876.819 1351.74 876.513C1352 876.25 1352.13 875.899 1352.35 875.594C1352.44 875.419 1352.57 875.245 1352.66 875.069C1353.58 873.45 1354.5 870.781 1353.89 867.367C1353.84 867.105 1353.8 866.885 1353.71 866.624C1353.58 865.837 1353.27 865.047 1352.92 864.218C1352.92 864.218 1359.11 870.43 1353.54 878.437ZM1077.74 981.095C1074.98 989.059 1071.16 995.798 1066.29 1001.36C1061.38 1006.87 1055.71 1011.07 1049.22 1014.05C1042.72 1016.98 1035.7 1018.42 1028.2 1018.42C1020.69 1018.42 1013.71 1016.98 1007.22 1014.05C1000.72 1011.07 995.017 1006.87 990.144 1001.36C985.231 995.798 981.411 989.059 978.69 981.095C975.968 973.131 974.608 964.116 974.608 954.053C974.608 943.988 975.968 935.017 978.69 927.01C981.411 919.046 985.231 912.308 990.144 906.794C995.017 901.279 1000.72 897.037 1007.22 894.103C1013.71 891.171 1020.69 889.684 1028.2 889.684C1035.7 889.684 1042.72 891.171 1049.22 894.103C1055.71 897.037 1061.38 901.279 1066.29 906.794C1071.16 912.308 1074.98 919.046 1077.74 927.01C1080.47 935.017 1081.83 943.988 1081.83 954.053C1081.83 964.116 1080.47 973.131 1077.74 981.095ZM1914.12 1017.9C1911.31 1013.48 1912.54 1007.48 1916.75 1004.59C1926.45 997.899 1934.39 989.584 1940.54 979.607C1949.4 965.298 1953.88 948.188 1953.88 928.323C1953.88 908.456 1949.4 891.216 1940.54 876.644C1931.67 862.029 1919.07 850.826 1902.79 842.95C1886.51 835.117 1867.2 831.178 1844.9 831.178H1491.65C1489.19 831.178 1486.83 832.316 1485.16 834.286L1424.5 906.312C1419.1 912.7 1409.23 908.63 1409.23 899.966V840.631C1409.23 835.425 1405.28 831.178 1400.45 831.178H1338.74C1333.92 831.178 1329.97 835.425 1329.97 840.631V842.993C1324.57 839.099 1318.78 835.642 1312.68 832.667C1294.6 823.827 1273.79 819.408 1250.36 819.408C1231.22 819.408 1213.54 822.691 1197.25 829.165C1180.97 835.687 1166.84 844.919 1154.9 856.953C1149.24 862.64 1144.19 868.811 1139.72 875.506C1135.37 869.029 1130.41 863.034 1124.88 857.479C1112.81 845.356 1098.55 835.993 1082.18 829.342C1065.76 822.734 1047.77 819.408 1028.2 819.408C1008.84 819.408 990.934 822.734 974.433 829.342C957.888 835.993 943.623 845.356 931.554 857.479C919.485 869.642 910.093 883.864 903.378 900.186C896.663 916.465 893.285 934.449 893.285 954.053C893.285 973.438 896.663 991.336 903.378 1007.79C904.254 1009.93 905.177 1012.03 906.144 1014.09L938.796 1021.4H848.429C843.602 1021.4 839.653 1017.15 839.653 1011.95V840.631C839.653 835.425 835.704 831.178 830.874 831.178H767.808C762.981 831.178 759.031 835.425 759.031 840.631V1079.24C759.031 1084.45 762.981 1088.7 767.808 1088.7H938.796C943.666 1088.7 947.575 1084.45 947.575 1079.24V1064.15C955.736 1070.01 964.689 1074.87 974.433 1078.76C990.934 1085.42 1008.84 1088.7 1028.2 1088.7C1047.77 1088.7 1065.76 1085.42 1082.18 1078.76C1098.55 1072.16 1112.81 1062.75 1124.88 1050.63C1130.41 1045.07 1135.37 1039.08 1139.72 1032.6C1144.19 1039.29 1149.24 1045.51 1154.9 1051.2C1166.84 1063.19 1180.97 1072.46 1197.25 1078.94C1213.54 1085.46 1231.22 1088.7 1250.36 1088.7C1273.79 1088.7 1294.6 1084.23 1312.68 1075.26C1318.78 1072.24 1324.57 1068.79 1329.97 1064.89V1079.24C1329.97 1084.45 1333.92 1088.7 1338.74 1088.7H1400.45C1405.28 1088.7 1409.23 1084.45 1409.23 1079.24V1028.57C1409.23 1026.21 1410.02 1023.98 1411.47 1022.23L1420.03 1011.99C1423.71 1007.57 1430.25 1007.88 1433.59 1012.6L1484.45 1084.98C1486.12 1087.3 1488.71 1088.7 1491.43 1088.7H1801.63C1806.5 1088.7 1810.41 1084.45 1810.41 1079.24V1033.43C1810.41 1028.18 1814.36 1023.98 1819.19 1023.98H1827.7C1830.64 1023.98 1833.36 1025.51 1834.99 1028.14L1870.32 1084.54C1871.94 1087.12 1874.66 1088.7 1877.6 1088.7H1942.38C1949.4 1088.7 1953.62 1080.21 1949.62 1073.91L1914.12 1017.9Z" fill="#34373A"/>
</g>
<mask id="mask1_3138_9434" style="mask-type:luminance" maskUnits="userSpaceOnUse" x="71" y="237" width="1991" height="1026">
<path d="M71.5312 237.002H2061.53V1262.78H71.5312V237.002Z" fill="white"/>
</mask>
<g mask="url(#mask1_3138_9434)">
<path d="M1191.66 619.102L1214.53 561C1217.42 553.705 1228.03 553.705 1230.92 561L1253.79 619.102C1255.98 624.737 1251.73 630.767 1245.6 630.767H1199.86C1193.72 630.767 1189.47 624.737 1191.66 619.102ZM767.769 780.479H1013.51C1014.12 780.61 1014.74 780.653 1015.35 780.653H1122.08C1125.72 780.653 1128.96 778.468 1130.28 775.192L1150.61 723.468C1151.92 720.192 1155.16 718.007 1158.8 718.007H1286.65C1290.29 718.007 1293.53 720.192 1294.85 723.468L1315.18 775.192C1316.49 778.468 1319.73 780.653 1323.37 780.653H1428.97C1454.82 786.112 1481.54 788.865 1509.06 788.865C1547.27 788.865 1578.99 783.318 1604.18 772.178C1629.42 761.038 1648.44 746.316 1661.23 728.01C1674.02 709.706 1680.42 689.611 1680.42 667.68C1680.42 648.896 1676.74 633.169 1669.38 620.499C1662.02 607.831 1652.29 597.565 1640.2 589.658C1628.11 581.794 1614.87 575.459 1600.5 570.655C1586.13 565.893 1571.67 562.134 1557.17 559.383C1542.62 556.63 1529.3 554.053 1517.21 551.651C1505.12 549.292 1495.39 546.278 1488.03 542.696C1480.67 539.112 1476.99 534.219 1476.99 528.06C1476.99 523.953 1478.48 520.197 1481.45 516.746C1484.44 513.382 1489.43 510.585 1496.44 508.532C1503.45 506.478 1512.92 505.475 1524.83 505.475C1540.96 505.475 1557.52 507.746 1574.52 512.116C1586.04 515.173 1597.83 519.235 1609.92 524.304L1609.97 524.347L1613.43 525.789C1615.35 526.575 1617.24 527.449 1619.17 528.323C1619.56 528.497 1619.91 528.672 1620.31 528.715H1620.35C1620.35 528.715 1620.4 528.715 1620.52 528.76C1620.57 528.76 1620.66 528.803 1620.74 528.803C1620.83 528.803 1620.92 528.846 1621.05 528.846C1621.14 528.889 1621.23 528.889 1621.36 528.889H1621.44C1621.53 528.889 1621.62 528.889 1621.75 528.934H1622.15C1622.72 528.977 1623.46 528.977 1624.21 528.889C1624.38 528.846 1624.56 528.803 1624.78 528.76C1624.86 528.76 1624.95 528.76 1625.04 528.715C1625.3 528.672 1625.61 528.629 1625.87 528.54C1626.09 528.497 1626.31 528.409 1626.53 528.278C1628.02 527.58 1629.33 526.487 1630.25 524.958C1630.43 524.741 1630.56 524.521 1630.65 524.304C1630.73 524.084 1630.82 523.822 1631 523.473C1633.61 517.066 1645.62 485.971 1654.41 463.133C1657.45 456.381 1659.85 450.231 1661.58 445.709L1661.09 445.763C1661.22 445.408 1661.37 445.04 1661.49 444.708C1661.6 444.899 1661.66 445.106 1661.74 445.307C1661.69 445.438 1661.64 445.574 1661.58 445.709L1661.89 445.676L1657.37 461.527L1639.96 533.253C1639.09 536.267 1639.52 539.543 1641.19 542.251L1698.37 636.002C1699.2 637.311 1699.64 638.842 1699.64 640.37L1693.61 772.09C1693.61 776.808 1697.51 780.653 1702.37 780.653H1808.89C1813.71 780.653 1817.65 776.808 1817.65 772.09V652.653C1817.65 651.124 1818.04 649.639 1818.88 648.283L1952.64 426.01C1956.1 420.286 1951.89 413.079 1945.1 413.079H1845.6C1842.53 413.079 1839.68 414.651 1838.11 417.273L1768.36 533.347C1764.94 538.938 1756.66 538.938 1753.28 533.302L1679.46 417.273C1677.88 414.651 1675.03 413.079 1671.92 413.079H1523.56C1486.71 413.297 1455.87 418.758 1430.98 429.504C1405.57 440.47 1386.51 455.105 1373.72 473.409C1360.92 491.713 1354.52 511.984 1354.52 534.219C1354.52 553.397 1358.2 569.387 1365.56 582.231C1372.93 595.074 1382.65 605.428 1394.75 613.292C1406.84 621.155 1420.11 627.489 1434.66 632.295C1449.21 637.1 1463.67 640.945 1478.04 643.827C1492.41 646.755 1505.64 649.508 1517.73 652.041C1529.83 654.618 1539.55 657.808 1546.92 661.565C1554.28 665.321 1557.96 670.477 1557.96 676.941C1557.96 681.048 1556.38 684.587 1553.23 687.47C1550.07 690.354 1545.08 692.582 1538.24 694.11C1531.41 695.684 1522.03 696.427 1510.11 696.427C1489.78 696.427 1468.84 693.456 1447.28 687.47C1429.01 682.402 1412.18 675.893 1396.81 667.986C1396.19 667.637 1395.49 667.418 1394.83 667.243L1394.66 666.806C1393.39 666.589 1386.95 665.715 1384.54 671.308C1384.05 672.487 1382.57 676.244 1380.51 681.573C1380.33 682.054 1380.11 682.491 1379.94 682.971C1372.31 702.585 1362.85 723.798 1357.99 736.512C1357.77 736.292 1357.64 736.075 1357.51 735.812L1356.89 733.822L1368.84 661.907C1369.45 659.288 1369.24 656.579 1368.14 654.132L1267.81 418.758C1266.41 415.613 1263.25 413.603 1259.79 413.603H1167.48C1164.01 413.603 1160.86 415.613 1159.46 418.758L1031.82 712.328L1017.23 745.617L1028.32 691.534C1028.76 689.261 1027.05 687.164 1024.73 687.164H889.774C884.957 687.164 881.012 683.221 881.012 678.402V647.717C881.012 642.91 884.945 638.979 889.75 638.979L1015.03 639.502C1019.85 639.502 1020.62 637.016 1023.79 630.767L1055.09 561.341C1056.59 558.45 1056.28 554.815 1054 552.492C1052.41 550.869 1050.19 549.86 1047.75 549.86H889.774C884.957 549.86 881.012 545.917 881.012 541.096V515.609C881.012 510.805 884.912 506.872 889.774 506.872H1075.33C1080.15 506.872 1081.95 503.202 1084.1 498.134L1118.88 422.34C1121.43 417.141 1114.94 413.603 1110.12 413.603H767.793C762.974 413.603 759.031 417.546 759.031 422.367V771.741C759.031 776.546 762.962 780.479 767.769 780.479Z" fill="#34373A"/>
</g>
<mask id="mask2_3138_9434" style="mask-type:luminance" maskUnits="userSpaceOnUse" x="71" y="237" width="1991" height="1026">
<path d="M71.5312 237.002H2061.53V1262.78H71.5312V237.002Z" fill="white"/>
</mask>
<g mask="url(#mask2_3138_9434)">
<path d="M630.64 969.214C630.64 981.24 620.951 990.977 608.925 990.977H531.817C531.655 990.975 531.501 990.952 531.339 990.952C531.179 990.952 531.023 990.975 530.863 990.977H325.296C325.136 990.975 324.98 990.952 324.818 990.952C324.658 990.952 324.502 990.975 324.34 990.977H247.19C235.213 990.977 225.476 981.24 225.476 969.214V512.591C225.476 500.565 235.213 490.828 247.19 490.828H608.925C620.951 490.828 630.64 500.565 630.64 512.591V969.214ZM608.925 444.381H524.992C517.009 424.859 497.825 411.081 475.478 411.081H380.639C358.291 411.081 339.109 424.859 331.174 444.381H247.19C209.605 444.381 179.031 474.956 179.031 512.591V969.214C179.031 1006.85 209.605 1037.42 247.19 1037.42H276.067C276.028 1038.22 275.946 1039.01 275.946 1039.82C275.946 1066.82 297.828 1088.7 324.818 1088.7C351.81 1088.7 373.692 1066.82 373.692 1039.82C373.692 1039.01 373.61 1038.22 373.571 1037.42H482.588C482.551 1038.22 482.467 1039.01 482.467 1039.82C482.467 1066.82 504.349 1088.7 531.339 1088.7C558.333 1088.7 580.213 1066.82 580.213 1039.82C580.213 1039.01 580.131 1038.22 580.09 1037.42H608.925C646.511 1037.42 677.134 1006.85 677.134 969.214V512.591C677.134 474.956 646.511 444.381 608.925 444.381Z" fill="#34373A"/>
</g>
<mask id="mask3_3138_9434" style="mask-type:luminance" maskUnits="userSpaceOnUse" x="71" y="237" width="1991" height="1026">
<path d="M71.5312 237.002H2061.53V1262.78H71.5312V237.002Z" fill="white"/>
</mask>
<g mask="url(#mask3_3138_9434)">
<path d="M427.932 622.796C390.155 622.796 359.531 653.421 359.531 691.199C359.531 718.498 375.566 741.995 398.695 752.966V829.77C398.695 845.918 411.786 859.007 427.932 859.007C444.08 859.007 457.168 845.918 457.168 829.77V752.966C480.3 741.995 496.335 718.498 496.335 691.199C496.335 653.421 465.709 622.796 427.932 622.796Z" fill="#34373A"/>
</g>
<path d="M201.688 198V65.25H208.438V198H201.688ZM215.188 198V65.25H235.438V198H215.188ZM242.188 198V65.25H262.438V198H242.188ZM269.188 198V65.25H275.938V198H269.188ZM296.188 198V65.25H302.938V198H296.188ZM239.713 217.575H256.363C261.913 217.575 266.038 219 268.738 221.85C271.588 224.55 273.013 228.075 273.013 232.425C273.013 236.625 271.663 240.075 268.963 242.775C266.263 245.475 262.213 246.825 256.813 246.825H245.788V269.775H239.713V217.575ZM256.138 241.65C259.888 241.65 262.588 240.825 264.238 239.175C266.038 237.675 266.938 235.5 266.938 232.65C266.938 229.8 266.038 227.55 264.238 225.9C262.438 224.1 259.813 223.2 256.363 223.2H245.788V241.65H256.138ZM309.793 198V65.25H330.043V198H309.793ZM336.793 198V65.25H343.543V198H336.793ZM350.293 198V65.25H357.043V198H350.293ZM363.793 198V65.25H384.043V198H363.793ZM404.293 198V65.25H411.043V198H404.293ZM347.593 217.575H362.893C368.893 217.575 373.243 218.925 375.943 221.625C378.793 224.175 380.218 227.85 380.218 232.65C380.218 235.65 379.243 238.5 377.293 241.2C375.343 243.9 372.793 245.7 369.643 246.6L381.793 269.775H375.268L363.568 246.825H353.443V269.775H347.593V217.575ZM363.568 241.65C367.168 241.65 369.868 240.825 371.668 239.175C373.318 237.675 374.143 235.5 374.143 232.65C374.143 229.8 373.318 227.475 371.668 225.675C369.868 224.025 367.168 223.2 363.568 223.2H353.443V241.65H363.568ZM417.898 198V65.25H438.148V198H417.898ZM444.898 198V65.25H451.648V198H444.898ZM458.398 198V65.25H478.648V198H458.398ZM485.398 198V65.25H492.148V198H485.398ZM512.398 198V65.25H519.148V198H512.398ZM471.898 270.675C465.898 270.675 461.323 268.35 458.173 263.7C454.873 259.05 453.223 252.45 453.223 243.9C453.223 235.65 454.873 229.125 458.173 224.325C461.473 219.675 466.048 217.35 471.898 217.35C477.748 217.35 482.323 219.675 485.623 224.325C488.923 229.125 490.573 235.65 490.573 243.9C490.573 252.45 488.923 259.05 485.623 263.7C482.473 268.35 477.898 270.675 471.898 270.675ZM471.898 265.5C475.948 265.5 479.023 263.7 481.123 260.1C483.373 256.35 484.498 250.95 484.498 243.9C484.498 237.3 483.373 232.05 481.123 228.15C478.873 224.4 475.798 222.525 471.898 222.525C467.998 222.525 464.923 224.4 462.673 228.15C460.423 232.05 459.298 237.3 459.298 243.9C459.298 250.95 460.348 256.35 462.448 260.1C464.698 263.7 467.848 265.5 471.898 265.5ZM526.004 198V65.25H532.754V198H526.004ZM553.004 198V65.25H559.754V198H553.004ZM566.504 198V65.25H586.754V198H566.504ZM593.504 198V65.25H600.254V198H593.504ZM607.004 198V65.25H627.254V198H607.004ZM576.629 243.225L562.679 217.575H568.979L580.004 237.375L590.804 217.575H596.654L583.379 243L598.229 269.775H591.704L580.004 249.075L568.754 269.775H562.454L576.629 243.225ZM634.109 198V65.25H640.859V198H634.109ZM647.609 198V65.25H667.859V198H647.609ZM674.609 198V65.25H681.359V198H674.609ZM701.609 198V65.25H721.859V198H701.609ZM728.609 198V65.25H735.359V198H728.609ZM673.934 264.825H684.284V222.525H674.609V217.575H700.484V222.525H690.134V264.825H700.934V269.775H673.934V264.825ZM742.215 198V65.25H762.465V198H742.215ZM769.215 198V65.25H789.465V198H769.215ZM796.215 198V65.25H802.965V198H796.215ZM809.715 198V65.25H816.465V198H809.715ZM836.715 198V65.25H843.465V198H836.715ZM778.665 217.575H783.39L796.215 243.225L809.265 217.575H813.765V269.775H808.14V230.4L796.89 251.55H794.64L784.065 230.625V269.775H778.665V217.575ZM850.32 198V65.25H870.57V198H850.32ZM877.32 198V65.25H884.07V198H877.32ZM890.82 198V65.25H897.57V198H890.82ZM917.82 198V65.25H924.57V198H917.82ZM931.32 198V65.25H951.57V198H931.32ZM912.645 254.475H895.77L890.595 269.775H884.745L903.87 216.675H904.545L923.895 269.775H917.82L912.645 254.475ZM911.07 249.975L904.32 230.175L897.345 249.975H911.07ZM958.426 198V65.25H965.176V198H958.426ZM985.426 198V65.25H1005.68V198H985.426ZM1012.43 198V65.25H1019.18V198H1012.43ZM1025.93 198V65.25H1046.18V198H1025.93ZM1052.93 198V65.25H1059.68V198H1052.93ZM1066.53 198V65.25H1086.78V198H1066.53ZM1093.53 198V65.25H1100.28V198H1093.53ZM1107.03 198V65.25H1113.78V198H1107.03ZM1134.03 198V65.25H1140.78V198H1134.03ZM1147.53 198V65.25H1167.78V198H1147.53ZM1128.86 254.475H1111.98L1106.81 269.775H1100.96L1120.08 216.675H1120.76L1140.11 269.775H1134.03L1128.86 254.475ZM1127.28 249.975L1120.53 230.175L1113.56 249.975H1127.28ZM1174.64 198V65.25H1181.39V198H1174.64ZM1188.14 198V65.25H1208.39V198H1188.14ZM1215.14 198V65.25H1235.39V198H1215.14ZM1242.14 198V65.25H1248.89V198H1242.14ZM1269.14 198V65.25H1275.89V198H1269.14ZM1212.66 217.575H1229.31C1234.86 217.575 1238.99 219 1241.69 221.85C1244.54 224.55 1245.96 228.075 1245.96 232.425C1245.96 236.625 1244.61 240.075 1241.91 242.775C1239.21 245.475 1235.16 246.825 1229.76 246.825H1218.74V269.775H1212.66V217.575ZM1229.09 241.65C1232.84 241.65 1235.54 240.825 1237.19 239.175C1238.99 237.675 1239.89 235.5 1239.89 232.65C1239.89 229.8 1238.99 227.55 1237.19 225.9C1235.39 224.1 1232.76 223.2 1229.31 223.2H1218.74V241.65H1229.09ZM1282.74 198V65.25H1302.99V198H1282.74ZM1309.74 198V65.25H1316.49V198H1309.74ZM1323.24 198V65.25H1343.49V198H1323.24ZM1363.74 198V65.25H1370.49V198H1363.74ZM1377.24 198V65.25H1383.99V198H1377.24ZM1320.77 217.575H1352.72V222.75H1326.17V239.85H1348.22V245.25H1326.17V264.6H1352.49V269.775H1320.77V217.575ZM1390.85 198V65.25H1411.1V198H1390.85ZM1417.85 198V65.25H1424.6V198H1417.85ZM1431.35 198V65.25H1438.1V198H1431.35ZM1444.85 198V65.25H1465.1V198H1444.85ZM1485.35 198V65.25H1492.1V198H1485.35ZM1428.65 217.575H1443.95C1449.95 217.575 1454.3 218.925 1457 221.625C1459.85 224.175 1461.27 227.85 1461.27 232.65C1461.27 235.65 1460.3 238.5 1458.35 241.2C1456.4 243.9 1453.85 245.7 1450.7 246.6L1462.85 269.775H1456.32L1444.62 246.825H1434.5V269.775H1428.65V217.575ZM1444.62 241.65C1448.22 241.65 1450.92 240.825 1452.72 239.175C1454.37 237.675 1455.2 235.5 1455.2 232.65C1455.2 229.8 1454.37 227.475 1452.72 225.675C1450.92 224.025 1448.22 223.2 1444.62 223.2H1434.5V241.65H1444.62ZM1498.95 198V65.25H1505.7V198H1498.95ZM1512.45 198V65.25H1519.2V198H1512.45ZM1525.95 198V65.25H1546.2V198H1525.95ZM1552.95 198V65.25H1573.2V198H1552.95ZM1593.45 198V65.25H1600.2V198H1593.45ZM1549.35 222.75H1534.73V217.575H1570.73V222.75H1555.43V269.775H1549.35V222.75ZM1607.06 198V65.25H1627.31V198H1607.06ZM1647.56 198V65.25H1654.31V198H1647.56ZM1661.06 198V65.25H1667.81V198H1661.06ZM1674.56 198V65.25H1681.31V198H1674.56ZM1688.06 198V65.25H1708.31V198H1688.06ZM1661.06 270.675C1655.66 270.675 1651.53 269.025 1648.68 265.725C1645.83 262.425 1644.41 257.775 1644.41 251.775V217.575H1650.93V218.25C1650.48 218.55 1650.26 218.925 1650.26 219.375C1650.11 219.675 1650.03 220.35 1650.03 221.4V251.775C1650.03 256.275 1650.93 259.725 1652.73 262.125C1654.38 264.525 1657.23 265.725 1661.28 265.725C1665.18 265.725 1668.03 264.525 1669.83 262.125C1671.63 259.725 1672.53 256.2 1672.53 251.55V217.575H1678.16V251.55C1678.16 258 1676.66 262.8 1673.66 265.95C1670.66 269.1 1666.46 270.675 1661.06 270.675ZM1715.16 198V65.25H1735.41V198H1715.16ZM1742.16 198V65.25H1748.91V198H1742.16ZM1755.66 198V65.25H1762.41V198H1755.66ZM1769.16 198V65.25H1789.41V198H1769.16ZM1809.66 198V65.25H1816.41V198H1809.66ZM1752.96 217.575H1768.26C1774.26 217.575 1778.61 218.925 1781.31 221.625C1784.16 224.175 1785.59 227.85 1785.59 232.65C1785.59 235.65 1784.61 238.5 1782.66 241.2C1780.71 243.9 1778.16 245.7 1775.01 246.6L1787.16 269.775H1780.64L1768.94 246.825H1758.81V269.775H1752.96V217.575ZM1768.94 241.65C1772.54 241.65 1775.24 240.825 1777.04 239.175C1778.69 237.675 1779.51 235.5 1779.51 232.65C1779.51 229.8 1778.69 227.475 1777.04 225.675C1775.24 224.025 1772.54 223.2 1768.94 223.2H1758.81V241.65H1768.94ZM1823.27 198V65.25H1843.52V198H1823.27ZM1850.27 198V65.25H1857.02V198H1850.27ZM1863.77 198V65.25H1870.52V198H1863.77ZM1890.77 198V65.25H1897.52V198H1890.77ZM1904.27 198V65.25H1924.52V198H1904.27ZM1885.59 254.475H1868.72L1863.54 269.775H1857.69L1876.82 216.675H1877.49L1896.84 269.775H1890.77L1885.59 254.475ZM1884.02 249.975L1877.27 230.175L1870.29 249.975H1884.02Z" fill="#34373A"/>
</svg>
