<svg width="1991" height="1026" viewBox="0 0 1991 1026" fill="none" xmlns="http://www.w3.org/2000/svg">
<path d="M1793.55 713.375C1788.2 718.756 1779.9 721.47 1768.76 721.47H1748.17C1743.35 721.47 1739.4 717.226 1739.4 712.019V670.58C1739.4 665.373 1743.35 661.128 1748.17 661.128H1768.76C1779.9 661.128 1788.2 663.84 1793.55 669.224C1798.86 674.648 1801.54 682.001 1801.54 691.321C1801.54 700.641 1798.86 707.994 1793.55 713.375ZM1658.82 696.616V786.233H1558.1C1553.27 786.233 1549.32 781.989 1549.32 776.78V761.816C1549.32 756.609 1553.27 752.364 1558.1 752.364H1641.66C1646.48 752.364 1650.44 748.163 1650.44 742.911V699.285C1650.44 694.078 1646.48 689.833 1641.66 689.833H1558.1C1553.27 689.833 1549.32 685.589 1549.32 680.38V669.135C1549.32 663.928 1553.27 659.684 1558.1 659.684H1642.82C1643.57 658.371 1656.97 615.137 1658.82 603.629V659.027C1658.86 659.027 1658.9 659.027 1658.99 658.984L1658.82 696.616ZM1470.1 794.94V795.465L1462.73 784.877L1413.22 713.943C1410.68 710.312 1410.9 705.236 1413.75 701.911L1470.1 635.047V769.035L1492.97 826.228L1470.1 794.94ZM1282.52 641.435C1278.97 646.599 1267.03 667.139 1258.96 677.03V773.631L1242.32 757.66C1238.77 754.203 1233.32 754.551 1230.04 758.316C1224.5 764.571 1218.62 769.649 1212.3 773.543C1203.74 778.795 1194.13 781.421 1183.42 781.421C1175.04 781.421 1167.41 779.976 1160.56 777.045C1153.71 774.068 1147.87 769.78 1142.96 764.136C1138.09 758.49 1134.27 751.708 1131.55 743.744C1128.79 735.78 1127.42 726.854 1127.42 717.051C1127.42 707.249 1128.79 698.366 1131.55 690.402C1134.27 682.438 1138.09 675.612 1142.96 669.966C1147.87 664.322 1153.71 660.035 1160.56 657.101C1167.41 654.169 1175.04 652.682 1183.42 652.682C1194.13 652.682 1203.74 655.308 1212.3 660.603C1218.62 664.497 1224.5 669.572 1230.04 675.786C1233.32 679.549 1238.77 679.9 1242.32 676.486L1253.29 665.941V665.898L1258.96 660.472L1280.29 639.991C1280.29 639.991 1280.46 639.817 1280.72 639.511C1280.99 639.248 1281.12 638.898 1281.34 638.592C1281.43 638.417 1281.56 638.243 1281.65 638.067C1282.57 636.448 1283.49 633.779 1282.87 630.365C1282.83 630.103 1282.79 629.883 1282.7 629.623C1282.57 628.835 1282.26 628.045 1281.91 627.216C1281.91 627.216 1288.1 633.428 1282.52 641.435ZM1006.73 744.093C1003.97 752.057 1000.15 758.796 995.277 764.354C990.363 769.866 984.701 774.068 978.206 777.045C971.708 779.976 964.688 781.421 957.184 781.421C949.677 781.421 942.702 779.976 936.204 777.045C929.709 774.068 924.004 769.866 919.131 764.354C914.218 758.796 910.398 752.057 907.678 744.093C904.955 736.129 903.595 727.114 903.595 717.051C903.595 706.986 904.955 698.015 907.678 690.008C910.398 682.044 914.218 675.306 919.131 669.792C924.004 664.277 929.709 660.035 936.204 657.101C942.702 654.169 949.677 652.682 957.184 652.682C964.688 652.682 971.708 654.169 978.206 657.101C984.701 660.035 990.363 664.277 995.277 669.792C1000.15 675.306 1003.97 682.044 1006.73 690.008C1009.45 698.015 1010.81 706.986 1010.81 717.051C1010.81 727.114 1009.45 736.129 1006.73 744.093ZM1843.1 780.895C1840.29 776.474 1841.53 770.48 1845.74 767.591C1855.43 760.897 1863.38 752.582 1869.52 742.605C1878.39 728.296 1882.87 711.186 1882.87 691.321C1882.87 671.454 1878.39 654.214 1869.52 639.642C1860.66 625.027 1848.06 613.824 1831.78 605.948C1815.5 598.115 1796.19 594.176 1773.89 594.176H1420.64C1418.18 594.176 1415.81 595.314 1414.14 597.284L1353.49 669.31C1348.09 675.698 1338.22 671.628 1338.22 662.964V603.629C1338.22 598.423 1334.27 594.176 1329.44 594.176H1267.73C1262.9 594.176 1258.96 598.423 1258.96 603.629V605.991C1253.56 602.097 1247.76 598.64 1241.67 595.665C1223.58 586.825 1202.78 582.406 1179.34 582.406C1160.21 582.406 1142.52 585.689 1126.24 592.163C1109.96 598.685 1095.82 607.917 1083.89 619.952C1078.22 625.638 1073.18 631.809 1068.7 638.504C1064.36 632.027 1059.4 626.032 1053.87 620.477C1041.8 608.354 1027.54 598.991 1011.16 592.34C994.749 585.732 976.755 582.406 957.184 582.406C937.827 582.406 919.921 585.732 903.421 592.34C886.875 598.991 872.611 608.354 860.541 620.477C848.472 632.64 839.08 646.862 832.365 663.184C825.651 679.463 822.272 697.447 822.272 717.051C822.272 736.436 825.651 754.334 832.365 770.787C833.241 772.931 834.165 775.032 835.131 777.088L867.783 784.395H777.417C772.589 784.395 768.64 780.151 768.64 774.944V603.629C768.64 598.423 764.691 594.176 759.862 594.176H696.795C691.968 594.176 688.019 598.423 688.019 603.629V842.243C688.019 847.452 691.968 851.696 696.795 851.696H867.783C872.654 851.696 876.562 847.452 876.562 842.243V827.147C884.723 833.011 893.676 837.867 903.421 841.763C919.921 848.414 937.827 851.696 957.184 851.696C976.755 851.696 994.749 848.414 1011.16 841.763C1027.54 835.155 1041.8 825.746 1053.87 813.626C1059.4 808.068 1064.36 802.073 1068.7 795.597C1073.18 802.293 1078.22 808.505 1083.89 814.194C1095.82 826.185 1109.96 835.462 1126.24 841.937C1142.52 848.459 1160.21 851.696 1179.34 851.696C1202.78 851.696 1223.58 847.232 1241.67 838.261C1247.76 835.243 1253.56 831.786 1258.96 827.89V842.243C1258.96 847.452 1262.9 851.696 1267.73 851.696H1329.44C1334.27 851.696 1338.22 847.452 1338.22 842.243V791.572C1338.22 789.208 1339.01 786.978 1340.46 785.226L1349.01 774.987C1352.7 770.568 1359.24 770.874 1362.58 775.598L1413.44 847.977C1415.11 850.295 1417.7 851.696 1420.42 851.696H1730.62C1735.49 851.696 1739.4 847.452 1739.4 842.243V796.428C1739.4 791.178 1743.35 786.978 1748.17 786.978H1756.69C1759.63 786.978 1762.35 788.509 1763.97 791.135L1799.3 847.538C1800.93 850.121 1803.65 851.696 1806.59 851.696H1871.37C1878.39 851.696 1882.6 843.207 1878.61 836.905L1843.1 780.895Z" fill="#34373A"/>
<path d="M1120.65 382.1L1143.52 323.998C1146.41 316.703 1157.02 316.703 1159.91 323.998L1182.78 382.1C1184.97 387.735 1180.72 393.765 1174.59 393.765H1128.84C1122.71 393.765 1118.46 387.735 1120.65 382.1ZM696.756 543.477H942.497C943.11 543.608 943.723 543.651 944.337 543.651H1051.07C1054.71 543.651 1057.95 541.466 1059.26 538.19L1079.59 486.466C1080.91 483.19 1084.15 481.005 1087.79 481.005H1215.64C1219.28 481.005 1222.52 483.19 1223.84 486.466L1244.16 538.19C1245.48 541.466 1248.72 543.651 1252.36 543.651H1357.95C1383.8 549.11 1410.53 551.863 1438.05 551.863C1476.25 551.863 1507.97 546.316 1533.17 535.176C1558.41 524.036 1577.42 509.314 1590.21 491.008C1603.01 472.704 1609.41 452.609 1609.41 430.678C1609.41 411.894 1605.73 396.167 1598.37 383.497C1591 370.829 1581.28 360.563 1569.19 352.656C1557.09 344.793 1543.86 338.457 1529.49 333.653C1515.12 328.891 1500.66 325.133 1486.15 322.381C1471.61 319.628 1458.29 317.051 1446.2 314.649C1434.1 312.29 1424.38 309.276 1417.02 305.694C1409.65 302.11 1405.97 297.217 1405.97 291.058C1405.97 286.951 1407.46 283.195 1410.44 279.744C1413.42 276.38 1418.42 273.583 1425.43 271.53C1432.44 269.476 1441.9 268.473 1453.82 268.473C1469.94 268.473 1486.51 270.744 1503.5 275.114C1515.03 278.171 1526.82 282.233 1538.91 287.302L1538.95 287.345L1542.41 288.787C1544.34 289.573 1546.23 290.447 1548.15 291.321C1548.55 291.495 1548.9 291.67 1549.29 291.713H1549.34C1549.34 291.713 1549.38 291.713 1549.51 291.758C1549.56 291.758 1549.64 291.801 1549.73 291.801C1549.82 291.801 1549.91 291.844 1550.04 291.844C1550.13 291.887 1550.21 291.887 1550.35 291.887H1550.43C1550.52 291.887 1550.61 291.887 1550.74 291.932H1551.13C1551.7 291.975 1552.45 291.975 1553.19 291.887C1553.37 291.844 1553.54 291.801 1553.76 291.758C1553.85 291.758 1553.94 291.758 1554.02 291.713C1554.29 291.67 1554.6 291.627 1554.86 291.538C1555.08 291.495 1555.3 291.407 1555.52 291.276C1557 290.578 1558.32 289.485 1559.24 287.956C1559.41 287.739 1559.54 287.519 1559.63 287.302C1559.72 287.082 1559.81 286.82 1559.98 286.471C1562.6 280.064 1574.61 248.969 1583.4 226.131C1586.44 219.379 1588.83 213.229 1590.57 208.707L1590.07 208.761C1590.21 208.406 1590.35 208.038 1590.48 207.706C1590.59 207.897 1590.65 208.104 1590.73 208.305C1590.67 208.436 1590.62 208.572 1590.57 208.707L1590.87 208.674L1586.36 224.525L1568.95 296.251C1568.07 299.265 1568.51 302.541 1570.18 305.249L1627.35 399.001C1628.19 400.309 1628.63 401.84 1628.63 403.368L1622.6 535.088C1622.6 539.806 1626.49 543.651 1631.36 543.651H1737.88C1742.69 543.651 1746.64 539.806 1746.64 535.088V415.651C1746.64 414.122 1747.03 412.637 1747.86 411.281L1881.63 189.008C1885.09 183.285 1880.88 176.077 1874.09 176.077H1774.59C1771.52 176.077 1768.67 177.649 1767.1 180.271L1697.34 296.345C1693.93 301.936 1685.64 301.936 1682.27 296.3L1608.44 180.271C1606.87 177.649 1604.02 176.077 1600.91 176.077H1452.55C1415.7 176.295 1384.86 181.756 1359.97 192.502C1334.56 203.468 1315.49 218.103 1302.7 236.407C1289.91 254.711 1283.51 274.982 1283.51 297.217C1283.51 316.395 1287.19 332.385 1294.55 345.229C1301.91 358.072 1311.64 368.426 1323.73 376.29C1335.83 384.153 1349.1 390.487 1363.65 395.293C1378.2 400.098 1392.66 403.943 1407.02 406.825C1421.4 409.753 1434.63 412.506 1446.72 415.04C1458.82 417.616 1468.54 420.806 1475.9 424.563C1483.26 428.319 1486.94 433.475 1486.94 439.939C1486.94 444.046 1485.37 447.585 1482.21 450.468C1479.06 453.352 1474.06 455.58 1467.23 457.109C1460.39 458.682 1451.02 459.425 1439.1 459.425C1418.77 459.425 1397.82 456.454 1376.27 450.468C1358 445.4 1341.17 438.891 1325.79 430.984C1325.18 430.635 1324.48 430.416 1323.82 430.241L1323.65 429.804C1322.38 429.587 1315.93 428.713 1313.52 434.306C1313.04 435.485 1311.55 439.242 1309.49 444.572C1309.32 445.052 1309.1 445.489 1308.92 445.969C1301.3 465.583 1291.84 486.796 1286.98 499.51C1286.76 499.29 1286.62 499.073 1286.49 498.81L1285.88 496.82L1297.83 424.905C1298.44 422.286 1298.22 419.578 1297.13 417.13L1196.8 181.756C1195.4 178.611 1192.24 176.601 1188.78 176.601H1096.46C1093 176.601 1089.85 178.611 1088.45 181.756L960.811 475.326L946.22 508.615L957.307 454.532C957.746 452.259 956.035 450.162 953.712 450.162H818.762C813.945 450.162 809.999 446.219 809.999 441.4V410.715C809.999 405.908 813.932 401.977 818.737 401.977L944.015 402.5C948.834 402.5 949.607 400.014 952.777 393.765L984.079 324.339C985.577 321.448 985.271 317.813 982.99 315.49C981.396 313.868 979.178 312.858 976.735 312.858H818.762C813.945 312.858 809.999 308.915 809.999 304.094V278.608C809.999 273.803 813.899 269.87 818.762 269.87H1004.32C1009.14 269.87 1010.94 266.2 1013.08 261.133L1047.87 185.338C1050.41 180.14 1043.93 176.601 1039.11 176.601H696.781C691.962 176.601 688.019 180.544 688.019 185.365V534.739C688.019 539.544 691.949 543.477 696.756 543.477Z" fill="#34373A"/>
<path d="M559.68 732.212C559.68 744.238 549.991 753.975 537.965 753.975H460.857C460.695 753.973 460.541 753.95 460.379 753.95C460.219 753.95 460.063 753.973 459.903 753.975H254.336C254.176 753.973 254.02 753.95 253.858 753.95C253.698 753.95 253.542 753.973 253.38 753.975H176.23C164.253 753.975 154.516 744.238 154.516 732.212V275.589C154.516 263.563 164.253 253.826 176.23 253.826H537.965C549.991 253.826 559.68 263.563 559.68 275.589V732.212ZM537.965 207.379H454.032C446.049 187.857 426.865 174.079 404.518 174.079H309.679C287.331 174.079 268.149 187.857 260.214 207.379H176.23C138.645 207.379 108.071 237.954 108.071 275.589V732.212C108.071 769.846 138.645 800.422 176.23 800.422H205.107C205.068 801.222 204.986 802.012 204.986 802.822C204.986 829.814 226.868 851.696 253.858 851.696C280.85 851.696 302.732 829.814 302.732 802.822C302.732 802.012 302.65 801.222 302.611 800.422H411.628C411.591 801.222 411.507 802.012 411.507 802.822C411.507 829.814 433.389 851.696 460.379 851.696C487.373 851.696 509.253 829.814 509.253 802.822C509.253 802.012 509.171 801.222 509.13 800.422H537.965C575.551 800.422 606.174 769.846 606.174 732.212V275.589C606.174 237.954 575.551 207.379 537.965 207.379Z" fill="#34373A"/>
<path d="M357.119 385.794C319.342 385.794 288.718 416.419 288.718 454.197C288.718 481.497 304.753 504.993 327.882 515.965V592.768C327.882 608.916 340.973 622.005 357.119 622.005C373.267 622.005 386.355 608.916 386.355 592.768V515.965C409.487 504.993 425.522 481.497 425.522 454.197C425.522 416.419 394.896 385.794 357.119 385.794Z" fill="#34373A"/>
</svg>
