<svg width="1991" height="1026" viewBox="0 0 1991 1026" fill="none" xmlns="http://www.w3.org/2000/svg">
<path d="M593.185 720.216C593.185 755.93 564.102 784.98 528.389 784.98H501.021C501.054 785.723 501.119 786.5 501.119 787.243C501.119 812.895 480.352 833.665 454.73 833.665C429.077 833.665 408.309 812.895 408.309 787.243C408.309 786.5 408.406 785.723 408.438 784.98H304.888C304.952 785.723 305.017 786.5 305.017 787.243C305.017 812.895 284.25 833.665 258.597 833.665C232.975 833.665 212.207 812.895 212.207 787.243C212.207 786.5 212.273 785.723 212.306 784.98H184.905C149.192 784.98 120.174 755.93 120.174 720.216V286.575C120.174 250.829 149.192 221.812 184.905 221.812H264.645C272.184 203.276 290.396 190.175 311.617 190.175H401.678C422.898 190.175 441.111 203.276 448.682 221.812H528.389C564.102 221.812 593.185 250.829 593.185 286.575V720.216ZM528.389 205.637H458.548C446.48 186.131 425.163 174 401.678 174H311.617C288.098 174 266.813 186.131 254.779 205.637H184.905C140.296 205.637 104 241.934 104 286.575V720.216C104 764.825 140.296 801.154 184.905 801.154H197.586C203.927 829.006 228.868 849.84 258.597 849.84C288.359 849.84 313.3 829.006 319.639 801.154H393.688C400.027 829.006 425.001 849.84 454.73 849.84C484.459 849.84 509.432 829.006 515.741 801.154H528.389C573.03 801.154 609.359 764.825 609.359 720.216V286.575C609.359 241.934 573.03 205.637 528.389 205.637Z" fill="#E8E8E8"/>
<path d="M384.436 514.863V587.78C384.436 603.113 372.014 615.535 356.68 615.535C341.347 615.535 328.892 603.113 328.892 587.78V514.863C306.926 504.415 291.724 482.127 291.724 456.183C291.724 420.307 320.805 391.225 356.68 391.225C392.556 391.225 421.639 420.307 421.639 456.183C421.639 482.127 406.402 504.415 384.436 514.863ZM528.389 265.905H184.906C173.52 265.905 164.267 275.156 164.267 286.575V720.218C164.267 731.637 173.52 740.854 184.906 740.854H528.389C539.81 740.854 549.03 731.637 549.03 720.218V286.575C549.03 275.156 539.81 265.905 528.389 265.905Z" fill="#E8E8E8"/>
<path d="M1796.89 712.935C1791.53 718.331 1783.21 721.051 1772.03 721.051H1751.4C1746.55 721.051 1742.59 716.796 1742.59 711.575V670.027C1742.59 664.806 1746.55 660.551 1751.4 660.551H1772.03C1783.21 660.551 1791.53 663.271 1796.89 668.667C1802.22 674.107 1804.9 681.479 1804.9 690.823C1804.9 700.168 1802.22 707.539 1796.89 712.935ZM1661.8 696.133V785.985H1560.82C1555.98 785.985 1552.02 781.73 1552.02 776.509V761.504C1552.02 756.282 1555.98 752.027 1560.82 752.027H1644.6C1649.44 752.027 1653.4 747.816 1653.4 742.549V698.808C1653.4 693.587 1649.44 689.332 1644.6 689.332H1560.82C1555.98 689.332 1552.02 685.075 1552.02 679.854V668.578C1552.02 663.357 1555.98 659.102 1560.82 659.102H1645.76C1646.51 657.785 1659.96 614.44 1661.8 602.9V658.444C1661.85 658.444 1661.89 658.444 1661.98 658.401L1661.8 696.133ZM1472.59 794.716V795.243L1465.2 784.625L1415.56 713.505C1413.01 709.864 1413.23 704.774 1416.09 701.44L1472.59 634.402V768.741L1495.51 826.086L1472.59 794.716ZM1284.52 640.807C1280.95 645.985 1268.98 666.578 1260.89 676.493V773.349L1244.21 757.337C1240.65 753.87 1235.19 754.221 1231.89 757.993C1226.35 764.267 1220.45 769.357 1214.11 773.261C1205.53 778.525 1195.89 781.159 1185.16 781.159C1176.76 781.159 1169.1 779.711 1162.23 776.771C1155.37 773.788 1149.51 769.488 1144.59 763.83C1139.7 758.17 1135.88 751.369 1133.15 743.384C1130.38 735.4 1129.01 726.449 1129.01 716.622C1129.01 706.793 1130.38 697.887 1133.15 689.9C1135.88 681.918 1139.7 675.072 1144.59 669.413C1149.51 663.753 1155.37 659.453 1162.23 656.513C1169.1 653.573 1176.76 652.082 1185.16 652.082C1195.89 652.082 1205.53 654.714 1214.11 660.023C1220.45 663.93 1226.35 669.017 1231.89 675.248C1235.19 679.021 1240.65 679.372 1244.21 675.95L1255.21 665.376V665.333L1260.89 659.892L1282.27 639.358C1282.27 639.358 1282.45 639.184 1282.71 638.876C1282.98 638.613 1283.11 638.263 1283.33 637.955C1283.42 637.78 1283.55 637.604 1283.64 637.428C1284.56 635.805 1285.49 633.13 1284.87 629.708C1284.83 629.443 1284.78 629.223 1284.7 628.961C1284.56 628.171 1284.25 627.381 1283.9 626.548C1283.9 626.548 1290.11 632.777 1284.52 640.807ZM1008 743.735C1005.23 751.72 1001.4 758.475 996.516 764.047C991.588 769.576 985.911 773.788 979.398 776.771C972.886 779.711 965.847 781.159 958.322 781.159C950.795 781.159 943.801 779.711 937.287 776.771C930.774 773.788 925.054 769.576 920.169 764.047C915.243 758.475 911.413 751.72 908.685 743.735C905.956 735.748 904.592 726.711 904.592 716.622C904.592 706.53 905.956 697.536 908.685 689.506C911.413 681.522 915.243 674.766 920.169 669.237C925.054 663.708 930.774 659.453 937.287 656.513C943.801 653.573 950.795 652.082 958.322 652.082C965.847 652.082 972.886 653.573 979.398 656.513C985.911 659.453 991.588 663.708 996.516 669.237C1001.4 674.766 1005.23 681.522 1008 689.506C1010.73 697.536 1012.09 706.53 1012.09 716.622C1012.09 726.711 1010.73 735.748 1008 743.735ZM1846.58 780.632C1843.76 776.201 1844.99 770.19 1849.22 767.295C1858.94 760.582 1866.9 752.247 1873.07 742.244C1881.95 727.897 1886.44 710.742 1886.44 690.823C1886.44 670.905 1881.95 653.618 1873.07 639.007C1864.18 624.355 1851.55 613.123 1835.22 605.224C1818.9 597.373 1799.54 593.424 1777.18 593.424H1423C1420.53 593.424 1418.16 594.564 1416.49 596.538L1355.67 668.755C1350.26 675.16 1340.36 671.079 1340.36 662.393V602.9C1340.36 597.679 1336.4 593.424 1331.56 593.424H1269.69C1264.85 593.424 1260.89 597.679 1260.89 602.9V605.269C1255.48 601.365 1249.67 597.898 1243.55 594.915C1225.42 586.053 1204.56 581.621 1181.07 581.621C1161.88 581.621 1144.15 584.912 1127.82 591.405C1111.5 597.943 1097.33 607.2 1085.36 619.265C1079.68 624.969 1074.62 631.156 1070.13 637.867C1065.78 631.373 1060.81 625.362 1055.26 619.792C1043.16 607.637 1028.86 598.249 1012.44 591.582C995.986 584.955 977.945 581.621 958.322 581.621C938.914 581.621 920.961 584.955 904.417 591.582C887.829 598.249 873.525 607.637 861.425 619.792C849.325 631.989 839.908 646.247 833.175 662.612C826.442 678.933 823.055 696.966 823.055 716.622C823.055 736.056 826.442 754.001 833.175 770.498C834.053 772.648 834.978 774.755 835.947 776.816L868.685 784.142H778.083C773.243 784.142 769.281 779.885 769.281 774.666V602.9C769.281 597.679 765.322 593.424 760.48 593.424H697.249C692.408 593.424 688.448 597.679 688.448 602.9V842.144C688.448 847.363 692.408 851.62 697.249 851.62H868.685C873.57 851.62 877.487 847.363 877.487 842.144V827.008C885.67 832.887 894.648 837.756 904.417 841.662C920.961 848.329 938.914 851.62 958.322 851.62C977.945 851.62 995.986 848.329 1012.44 841.662C1028.86 835.035 1043.16 825.602 1055.26 813.451C1060.81 807.879 1065.78 801.868 1070.13 795.375C1074.62 802.087 1079.68 808.316 1085.36 814.021C1097.33 826.041 1111.5 835.343 1127.82 841.836C1144.15 848.375 1161.88 851.62 1181.07 851.62C1204.56 851.62 1225.42 847.146 1243.55 838.152C1249.67 835.124 1255.48 831.656 1260.89 827.752V842.144C1260.89 847.363 1264.85 851.62 1269.69 851.62H1331.56C1336.4 851.62 1340.36 847.363 1340.36 842.144V791.337C1340.36 788.968 1341.15 786.732 1342.6 784.975L1351.18 774.709C1354.88 770.278 1361.44 770.586 1364.78 775.323L1415.78 847.89C1417.45 850.217 1420.05 851.62 1422.78 851.62H1733.8C1738.68 851.62 1742.59 847.363 1742.59 842.144V796.208C1742.59 790.943 1746.55 786.732 1751.4 786.732H1759.93C1762.88 786.732 1765.61 788.266 1767.24 790.898L1802.66 847.451C1804.29 850.04 1807.02 851.62 1809.96 851.62H1874.91C1881.95 851.62 1886.18 843.108 1882.17 836.791L1846.58 780.632Z" fill="#E8E8E8"/>
<path d="M1122.22 380.786L1145.15 322.53C1148.05 315.216 1158.68 315.216 1161.58 322.53L1184.51 380.786C1186.71 386.436 1182.44 392.482 1176.3 392.482H1130.43C1124.28 392.482 1120.02 386.436 1122.22 380.786ZM697.207 542.588H943.594C944.21 542.719 944.825 542.762 945.44 542.762H1052.46C1056.1 542.762 1059.35 540.571 1060.67 537.287L1081.05 485.427C1082.37 482.141 1085.62 479.952 1089.27 479.952H1217.46C1221.11 479.952 1224.36 482.141 1225.67 485.427L1246.06 537.287C1247.38 540.571 1250.63 542.762 1254.27 542.762H1360.15C1386.07 548.238 1412.86 550.997 1440.45 550.997C1478.76 550.997 1510.56 545.433 1535.82 534.265C1561.13 523.096 1580.19 508.335 1593.02 489.982C1605.85 471.629 1612.26 451.48 1612.26 429.492C1612.26 410.658 1608.57 394.89 1601.19 382.187C1593.81 369.486 1584.06 359.191 1571.94 351.264C1559.81 343.38 1546.54 337.028 1532.13 332.211C1517.72 327.435 1503.23 323.668 1488.69 320.909C1474.1 318.15 1460.75 315.567 1448.62 313.156C1436.5 310.791 1426.74 307.769 1419.36 304.179C1411.98 300.586 1408.29 295.681 1408.29 289.504C1408.29 285.386 1409.79 281.62 1412.77 278.161C1415.76 274.788 1420.77 271.984 1427.8 269.926C1434.83 267.866 1444.32 266.859 1456.27 266.859C1472.43 266.859 1489.04 269.136 1506.08 273.516C1517.64 276.583 1529.45 280.656 1541.58 285.737L1541.62 285.78L1545.09 287.227C1547.03 288.014 1548.91 288.89 1550.85 289.767C1551.24 289.943 1551.59 290.117 1551.99 290.16H1552.03C1552.03 290.16 1552.08 290.16 1552.21 290.206C1552.25 290.206 1552.34 290.249 1552.43 290.249C1552.52 290.249 1552.6 290.294 1552.74 290.294C1552.82 290.337 1552.91 290.337 1553.05 290.337H1553.13C1553.22 290.337 1553.31 290.337 1553.44 290.38H1553.84C1554.41 290.423 1555.15 290.423 1555.9 290.337C1556.08 290.294 1556.25 290.249 1556.47 290.206C1556.56 290.206 1556.65 290.206 1556.73 290.16C1557 290.117 1557.31 290.074 1557.57 289.986C1557.79 289.943 1558.01 289.855 1558.23 289.723C1559.72 289.022 1561.04 287.928 1561.96 286.394C1562.14 286.176 1562.27 285.957 1562.36 285.737C1562.45 285.518 1562.53 285.255 1562.71 284.904C1565.33 278.481 1577.37 247.303 1586.18 224.406C1589.23 217.636 1591.63 211.471 1593.38 206.935L1592.88 206.988C1593.02 206.633 1593.16 206.266 1593.29 205.932C1593.39 206.123 1593.45 206.332 1593.53 206.533C1593.48 206.666 1593.43 206.8 1593.38 206.935L1593.68 206.904L1589.16 222.796L1571.7 294.709C1570.82 297.733 1571.26 301.017 1572.93 303.731L1630.26 397.73C1631.09 399.045 1631.53 400.577 1631.53 402.11L1625.49 534.176C1625.49 538.907 1629.4 542.762 1634.27 542.762H1741.07C1745.9 542.762 1749.85 538.907 1749.85 534.176V414.425C1749.85 412.893 1750.25 411.403 1751.08 410.045L1885.2 187.185C1888.67 181.447 1884.45 174.219 1877.64 174.219H1777.88C1774.8 174.219 1771.95 175.797 1770.36 178.425L1700.43 294.805C1697 300.41 1688.7 300.41 1685.32 294.76L1611.3 178.425C1609.72 175.797 1606.86 174.219 1603.74 174.219H1454.99C1418.04 174.438 1387.12 179.914 1362.17 190.689C1336.69 201.683 1317.58 216.358 1304.75 234.709C1291.92 253.062 1285.51 273.385 1285.51 295.681C1285.51 314.908 1289.2 330.939 1296.58 343.817C1303.96 356.694 1313.71 367.075 1325.84 374.959C1337.96 382.843 1351.27 389.195 1365.86 394.014C1380.44 398.831 1394.94 402.686 1409.35 405.577C1423.76 408.513 1437.02 411.272 1449.15 413.812C1461.27 416.397 1471.03 419.593 1478.41 423.36C1485.79 427.126 1489.48 432.296 1489.48 438.779C1489.48 442.895 1487.89 446.444 1484.73 449.334C1481.57 452.225 1476.56 454.459 1469.71 455.992C1462.85 457.569 1453.45 458.314 1441.5 458.314C1421.12 458.314 1400.12 455.335 1378.51 449.334C1360.19 444.253 1343.32 437.727 1327.9 429.799C1327.28 429.449 1326.58 429.229 1325.92 429.055L1325.75 428.616C1324.47 428.398 1318.02 427.522 1315.6 433.127C1315.12 434.311 1313.62 438.077 1311.56 443.422C1311.38 443.902 1311.16 444.341 1310.99 444.823C1303.34 464.489 1293.86 485.758 1288.98 498.504C1288.76 498.284 1288.63 498.067 1288.5 497.804L1287.88 495.808L1299.86 423.704C1300.48 421.076 1300.26 418.362 1299.16 415.908L1198.57 179.914C1197.16 176.761 1194 174.746 1190.53 174.746H1097.97C1094.5 174.746 1091.33 176.761 1089.93 179.914L961.958 474.257L947.328 507.633L958.443 453.409C958.884 451.129 957.169 449.027 954.841 449.027H819.535C814.703 449.027 810.75 445.073 810.75 440.242V409.475C810.75 404.658 814.693 400.715 819.51 400.715L945.116 401.24C949.95 401.24 950.725 398.747 953.903 392.482L985.288 322.872C986.79 319.974 986.484 316.328 984.196 313.999C982.598 312.375 980.374 311.361 977.925 311.361H819.535C814.703 311.361 810.75 307.408 810.75 302.574V277.02C810.75 272.203 814.658 268.26 819.535 268.26H1005.58C1010.41 268.26 1012.21 264.582 1014.37 259.5L1049.25 183.506C1051.8 178.293 1045.29 174.746 1040.46 174.746H697.233C692.402 174.746 688.446 178.699 688.446 183.531V533.828C688.446 538.645 692.39 542.588 697.207 542.588Z" fill="#E8E8E8"/>
</svg>
